<?xml version="1.0" encoding="iso-8859-1"?>
<!-- Generator: Adobe Illustrator 19.0.0, SVG Export Plug-In . SVG Version: 6.00 Build 0)  -->
<svg version="1.1" id="Capa_1" xmlns="http://www.w3.org/2000/svg" xmlns:xlink="http://www.w3.org/1999/xlink" x="0px" y="0px"
	 viewBox="0 0 485.664 485.664" style="enable-background:new 0 0 485.664 485.664;" xml:space="preserve">
<g>
	<g>
		<path d="M466.832,29.664v440h-32v-336c0-4.418-3.582-8-8-8h-32c-4.418,0-8,3.582-8,8v336h-32v-208c0-4.418-3.582-8-8-8h-32
			c-4.418,0-8,3.582-8,8v208h-32v-144c0-4.418-3.582-8-8-8h-32c-4.418,0-8,3.582-8,8v144h-32v-208c0-4.418-3.582-8-8-8h-32
			c-4.418,0-8,3.582-8,8v208h-32v-104c0-4.418-3.582-8-8-8h-32c-4.418,0-8,3.582-8,8v104h-64v16h472c4.418,0,8-3.582,8-8v-448
			H466.832z M98.832,469.664h-16v-96h16V469.664z M178.832,469.664h-16v-200h16V469.664z M258.832,469.664h-16v-136h16V469.664z
			 M338.832,469.664h-16v-200h16V469.664z M418.832,469.664h-16v-328h16V469.664z"/>
	</g>
</g>
<g>
	<g>
		<path d="M410.832,45.664c-13.255,0-24,10.745-24,24c0,3.265,0.673,6.495,1.976,9.488l-42.4,36.368
			c-9.953-8.653-25.036-7.6-33.689,2.353c-6.937,7.978-7.802,19.568-2.127,28.487l-52.136,84.656
			c-4.195-1.538-8.758-1.77-13.088-0.664l-56.136-57.488c3.59-4.254,5.572-9.634,5.6-15.2c0.098-13.254-10.567-24.079-23.822-24.177
			c-13.255-0.098-24.079,10.567-24.177,23.822c-0.043,5.793,2.011,11.406,5.783,15.803l-52.112,58.624
			c-12.111-5.387-26.296,0.063-31.683,12.173c-5.387,12.111,0.063,26.295,12.173,31.683c3.096,1.377,6.449,2.083,9.838,2.072
			c13.255,0,24-10.745,24-24c-0.025-3.793-0.96-7.524-2.728-10.88l54.728-61.528c2.713,0.555,5.511,0.555,8.224,0l56.72,58.048
			c-3.177,4.115-4.914,9.161-4.944,14.36c0,13.255,10.745,24,24,24s24-10.745,24-24c-0.013-4.499-1.303-8.901-3.72-12.696
			l52.104-84.656c12.353,4.362,25.903-2.116,30.264-14.469c0.927-2.626,1.385-5.395,1.352-8.179c-0.022-1.342-0.156-2.68-0.4-4
			l45.328-38.856c3.402,1.843,7.203,2.824,11.072,2.856c13.255,0,24-10.745,24-24S424.087,45.664,410.832,45.664z M90.832,261.664
			c-4.418,0-8-3.582-8-8s3.582-8,8-8s8,3.582,8,8S95.25,261.664,90.832,261.664z M170.832,165.664c-4.418,0-8-3.582-8-8s3.582-8,8-8
			s8,3.582,8,8S175.25,165.664,170.832,165.664z M250.832,261.664c-4.418,0-8-3.582-8-8s3.582-8,8-8s8,3.582,8,8
			S255.25,261.664,250.832,261.664z M330.832,141.664c-4.418,0-8-3.582-8-8s3.582-8,8-8s8,3.582,8,8S335.25,141.664,330.832,141.664
			z M410.832,77.664c-4.418,0-8-3.582-8-8s3.582-8,8-8s8,3.582,8,8S415.25,77.664,410.832,77.664z"/>
	</g>
</g>
<g>
	<g>
		<path d="M296.726,24.248c-0.08-0.085-0.162-0.167-0.246-0.248l-24-24l-11.304,11.32l10.344,10.344H170.832v16H271.52
			l-10.344,10.344l11.312,11.312l24-24l-0.056-0.056C299.555,32.303,299.687,27.372,296.726,24.248z"/>
	</g>
</g>
<g>
	<g>
		<rect x="82.832" y="101.664" width="32" height="16"/>
	</g>
</g>
<g>
	<g>
		<rect x="10.832" y="5.664" width="48" height="16"/>
	</g>
</g>
<g>
	<g>
		<rect x="50.832" y="101.664" width="16" height="16"/>
	</g>
</g>
<g>
	<g>
		<polygon points="368.488,11.32 357.176,0.008 350.832,6.352 344.488,0.008 333.176,11.32 339.52,17.664 333.176,24.008 
			344.488,35.32 350.832,28.976 357.176,35.32 368.488,24.008 362.144,17.664 		"/>
	</g>
</g>
<g>
</g>
<g>
</g>
<g>
</g>
<g>
</g>
<g>
</g>
<g>
</g>
<g>
</g>
<g>
</g>
<g>
</g>
<g>
</g>
<g>
</g>
<g>
</g>
<g>
</g>
<g>
</g>
<g>
</g>
</svg>
